<?xml version="1.0" encoding="UTF-8"?>
<svg id="Layer_1" xmlns="http://www.w3.org/2000/svg" version="1.1" viewBox="0 0 246 48">
  <!-- Generator: Adobe Illustrator 29.7.1, SVG Export Plug-In . SVG Version: 2.1.1 Build 8)  -->
  <rect width="100%" height="100%" fill="white"/>
  <defs>
    <style>
      .st0 {
        isolation: isolate;
      }

      .st1 {
        fill: #0c0f10;
      }
    </style>
  </defs>
  <path class="st1" d="M49.1,24.3c0,.5,0,.9-.3,1.3-.2.4-.5.7-.8.9-.3.2-.8.3-1.2.3s-.9-.1-1.2-.4-.4-.7-.4-1.3v-6.3h-3v6.9c0,.6,0,1.2.4,1.8.3.5.7,1,1.2,1.3s1.1.5,1.8.5,1.7-.2,2.3-.7c.5-.4.9-.8,1.3-1.4v1.9h2.9v-10.2h-3v5.5h0Z"/>
  <path class="st1" d="M62.8,19.3c-.7-.4-1.5-.6-2.4-.6s-1.8.2-2.4.6c-.5.3-.8.7-1,1.2v-1.6h-2.9v14.3h3v-5.8c.2.5.5.9.9,1.2.6.5,1.4.7,2.3.7s1.8-.2,2.5-.7,1.2-1.1,1.6-1.9c.4-.8.6-1.7.6-2.8s-.2-2-.6-2.8-.9-1.4-1.6-1.8h0ZM61.2,26.1c-.4.5-1,.8-1.7.8s-1.3-.2-1.8-.8-.7-1.2-.7-2.1.2-1.6.7-2.1,1-.8,1.7-.8,1.3.2,1.8.7.7,1.2.7,2.1-.2,1.6-.7,2.2h0Z"/>
  <path class="st1" d="M72.1,22.8l-1.8-.4c-.5-.1-.8-.2-1.1-.4-.2-.1-.3-.3-.3-.6s0-.5.4-.6.7-.2,1.2-.2,1,0,1.4.3.5.4.6.8h2.7c0-1-.5-1.7-1.3-2.2s-1.9-.8-3.2-.8-2.4.3-3.2.8-1.1,1.3-1.1,2.3.3,1.5.9,2,1.5.9,2.7,1.1l1.6.3c.4,0,.7.2.9.4.2.1.2.3.2.6s0,.6-.4.8-.7.3-1.4.3-1.2-.1-1.6-.4-.6-.6-.7-1h-2.7c0,1,.6,1.9,1.4,2.5.9.6,2.1.9,3.6.9s2.5-.3,3.3-.8,1.2-1.3,1.2-2.3-.3-1.5-.8-2-1.3-1-2.3-1.2h0s-.2-.2-.2-.2Z"/>
  <path class="st1" d="M83.3,24.3c0,.5,0,.9-.3,1.3s-.5.7-.8.9-.8.3-1.2.3-.9-.1-1.2-.4-.4-.7-.4-1.3v-6.3h-3v6.9c0,.6,0,1.2.4,1.8.3.5.7,1,1.2,1.3s1.1.5,1.8.5,1.7-.2,2.3-.7c.5-.4.9-.8,1.3-1.4v1.9h2.9v-10.2h-3v5.5h0Z"/>
  <path class="st1" d="M97.4,19.6c-.6-.6-1.5-1-2.6-1s-1.7.2-2.4.7c-.5.4-.9.8-1.3,1.4v-1.9h-2.9v10.2h3v-5.5c0-.5,0-1,.3-1.3.2-.4.5-.7.9-.9s.8-.3,1.2-.3,1,.1,1.2.4.4.7.4,1.3v6.3h3v-6.9c0-1.1-.3-1.9-.9-2.5h.1Z"/>
  <path class="st1" d="M24.2,12c-6.6,0-12,5.4-12,12h6c0-3.3,2.7-6,6-6s6,2.7,6,6h6c0-6.6-5.4-12-12-12Z"/>
  <path class="st1" d="M30.2,24h-12c0,2.6,1.6,4.8,4,5.6h0c0,.1-8.5.1-8.5.1,2,3.7,6,6.2,10.5,6.2s8.5-2.5,10.5-6.2h-8.5c2.3-.9,4-3.1,4-5.7h0Z"/>
  <path class="st1" d="M107.2,14.9h1v18.2h-1V14.9Z"/>
  <g class="st0">
    <g class="st0">
      <g class="st0">
        <path d="M117.4,28.1v-8.3h5v.9h-4v2.8h3.7v.9h-3.7v3.7h-1Z"/>
        <path d="M126.4,28.3c-.6,0-1.1-.1-1.6-.4s-.8-.6-1-1c-.2-.4-.4-1-.4-1.6v-.2c0-.6.1-1.1.4-1.6.2-.5.6-.8,1-1,.4-.2,1-.4,1.6-.4s1.1.1,1.6.4c.4.2.8.6,1,1s.4,1,.4,1.6v.2c0,.6-.1,1.1-.4,1.6s-.6.8-1,1-1,.4-1.6.4ZM126.4,27.4c.6,0,1.1-.2,1.5-.6s.6-.9.6-1.6h0c0-.8-.2-1.3-.6-1.7s-.9-.6-1.5-.6-1.1.2-1.5.6-.6.9-.6,1.6h0c0,.8.2,1.3.6,1.7s.9.6,1.5.6Z"/>
        <path d="M131.1,28.1v-5.8h.9v.7h.2c.1-.3.3-.4.5-.6s.5-.2.8-.2h.7v.9h-.8c-.4,0-.8.1-1,.4-.3.2-.4.6-.4,1.1v3.5h-.9Z"/>
        <path d="M135.6,28.1v-5.8h.9v.7h.2c.1-.2.3-.4.5-.6.3-.2.6-.3,1.1-.3s.8,0,1.1.3c.3.2.5.4.6.7h.2c.1-.3.3-.5.6-.7.3-.2.7-.3,1.1-.3s.7,0,1,.2c.3.2.5.4.7.7.2.3.3.7.3,1.1v3.9h-.9v-3.9c0-.4-.1-.7-.3-.9s-.5-.3-.9-.3-.8.1-1.1.4c-.3.3-.4.7-.4,1.2v3.5h-.9v-3.9c0-.4-.1-.7-.3-.9-.2-.2-.5-.3-.9-.3s-.8.1-1.1.4c-.3.3-.4.7-.4,1.2v3.5h-.9Z"/>
        <path d="M148.5,28.3c-.6,0-1.1-.1-1.5-.4-.4-.2-.8-.6-1-1.1-.2-.5-.4-1-.4-1.6h0c0-.7.1-1.3.4-1.7.2-.5.6-.8,1-1.1.4-.2.9-.4,1.5-.4s1,.1,1.5.4c.4.2.8.6,1,1s.4.9.4,1.5v.4h-4.7c0,.6.2,1.1.6,1.5.4.4.9.5,1.4.5s.9-.1,1.2-.3c.3-.2.5-.5.6-.8l.8.4c-.1.2-.3.5-.5.7-.2.2-.5.5-.8.6-.3.2-.8.2-1.3.2ZM146.5,24.7h3.8c0-.5-.2-1-.6-1.3s-.8-.5-1.3-.5-1,.2-1.3.5c-.3.3-.6.7-.6,1.3Z"/>
        <path d="M152.9,28.1v-5.8h.9v.7h.2c.1-.3.3-.4.5-.6.2-.1.5-.2.8-.2h.7v.9h-.7c-.4,0-.8.1-1,.4-.3.2-.4.6-.4,1.1v3.5h-.9Z"/>
        <path d="M157.3,28.1v-8.3h.9v8.3h-.9Z"/>
        <path d="M161,30.5v-.8h3.3c.2,0,.3-.1.3-.4v-2.1h-.2c0,.2-.2.3-.4.5-.2.2-.4.3-.6.4-.3,0-.6.1-1,.1s-.8,0-1.2-.3c-.4-.2-.6-.5-.8-.8-.2-.4-.3-.8-.3-1.3v-3.5h.9v3.5c0,.6.1,1,.4,1.2.3.3.7.4,1.2.4s1-.2,1.4-.5c.4-.4.5-.9.5-1.6v-2.9h.9v7.2c0,.3,0,.6-.3.8s-.4.3-.8.3h-3.6Z"/>
        <path d="M170.6,28.1v-8.3h3.2c.5,0,.9,0,1.3.3s.7.5.9.8c.2.4.3.8.3,1.3v.2c0,.5-.1.9-.4,1.3-.2.4-.5.6-.9.8-.4.2-.8.3-1.3.3h-2.2v3.4h-1ZM171.6,23.8h2.1c.5,0,1-.1,1.3-.4.3-.3.5-.6.5-1.1h0c0-.6-.2-1-.5-1.2-.3-.3-.7-.4-1.3-.4h-2.1v3.2Z"/>
        <path d="M177.8,28.1v-8.3h.9v8.3h-.9Z"/>
        <path d="M182.5,28.3c-.4,0-.8,0-1.1-.2s-.6-.3-.8-.6-.3-.6-.3-1,0-.7.3-1,.5-.5.8-.6c.3-.1.7-.2,1.1-.2h2v-.4c0-.4-.1-.7-.4-1-.2-.2-.6-.4-1.1-.4s-.8.1-1.1.3c-.3.2-.4.5-.5.9l-.9-.3c0-.3.2-.6.5-.9.2-.3.5-.5.8-.6.3-.2.8-.2,1.2-.2.7,0,1.3.2,1.7.6s.6.9.6,1.6v2.6c0,.2.1.4.3.4h.5v.8h-.8c-.3,0-.5,0-.6-.2-.2-.1-.2-.3-.2-.6h0c0,0-.1,0-.1,0,0,.2-.2.3-.4.5-.1.2-.3.3-.6.4s-.6.2-1,.2ZM182.6,27.5c.6,0,1-.2,1.4-.5.3-.3.5-.8.5-1.4h0c0-.1-1.9-.1-1.9-.1-.4,0-.7,0-.9.2-.2.2-.4.4-.4.7s.1.6.4.8.6.3,1,.3Z"/>
        <path d="M189.3,28.1c-.3,0-.6,0-.8-.3-.2-.2-.3-.4-.3-.8v-4h-1.7v-.8h1.7v-2.1h.9v2.1h1.9v.8h-1.9v3.8c0,.2.1.4.3.4h1.3v.8h-1.5Z"/>
        <path d="M193.4,28.1v-5h-1.8v-.8h1.8v-1.5c0-.3,0-.6.3-.8.2-.2.4-.3.8-.3h1.5v.8h-1.2c-.2,0-.4.1-.4.4v1.3h1.8v.8h-1.8v5h-.9Z"/>
        <path d="M199.9,28.3c-.6,0-1.1-.1-1.6-.4s-.8-.6-1-1-.4-1-.4-1.6v-.2c0-.6.1-1.1.4-1.6s.6-.8,1-1c.4-.2,1-.4,1.6-.4s1.1.1,1.6.4c.4.2.8.6,1,1s.4,1,.4,1.6v.2c0,.6-.1,1.1-.4,1.6s-.6.8-1,1-1,.4-1.6.4ZM199.9,27.4c.6,0,1.1-.2,1.5-.6.4-.4.6-.9.6-1.6h0c0-.8-.2-1.3-.6-1.7-.4-.4-.9-.6-1.5-.6s-1.1.2-1.5.6c-.4.4-.6.9-.6,1.6h0c0,.8.2,1.3.6,1.7.4.4.9.6,1.5.6Z"/>
        <path d="M204.6,28.1v-5.8h.9v.7h.2c.1-.3.3-.4.5-.6.2-.1.5-.2.8-.2h.7v.9h-.7c-.4,0-.8.1-1,.4-.3.2-.4.6-.4,1.1v3.5h-.9Z"/>
        <path d="M209.1,28.1v-5.8h.9v.7h.2c.1-.2.3-.4.5-.6.3-.2.6-.3,1.1-.3s.8,0,1.1.3c.3.2.5.4.6.7h.2c.1-.3.3-.5.6-.7s.7-.3,1.1-.3.7,0,1,.2c.3.2.5.4.7.7.2.3.3.7.3,1.1v3.9h-.9v-3.9c0-.4-.1-.7-.3-.9-.2-.2-.5-.3-.9-.3s-.8.1-1.1.4c-.3.3-.4.7-.4,1.2v3.5h-.9v-3.9c0-.4-.1-.7-.3-.9s-.5-.3-.9-.3-.8.1-1.1.4c-.3.3-.4.7-.4,1.2v3.5h-.9Z"/>
        <path d="M219.8,28.3c-.2,0-.4,0-.6-.2-.2-.2-.2-.3-.2-.6s0-.4.2-.6c.2-.2.3-.2.6-.2s.4,0,.6.2c.2.2.2.3.2.6s0,.4-.2.6c-.2.2-.3.2-.6.2Z"/>
        <path d="M224.7,28.3c-.7,0-1.3-.2-1.8-.5s-.8-.9-.9-1.6l.9-.2c0,.4.2.7.4.9.2.2.4.4.6.5.3,0,.5.1.8.1.4,0,.8,0,1-.3.3-.2.4-.4.4-.7s-.1-.5-.4-.6c-.2-.1-.6-.2-1-.3h-.5c-.4-.1-.7-.2-1-.4s-.6-.3-.7-.5c-.2-.2-.3-.5-.3-.9,0-.5.2-.9.6-1.2.4-.3.9-.4,1.6-.4s1.2.1,1.6.4c.4.3.7.7.8,1.3l-.9.2c0-.4-.2-.7-.5-.9s-.6-.3-1-.3-.7,0-.9.2c-.2.1-.3.4-.3.6s.1.5.3.6c.2.1.5.2.9.3h.5c.4.2.8.3,1.1.4.3.1.6.3.8.5.2.2.3.5.3.9,0,.6-.2,1-.6,1.3-.4.3-1,.5-1.7.5Z"/>
        <path d="M228.6,28.1v-8.3h.9v3.4h.2c0-.2.2-.3.4-.5.2-.2.4-.3.6-.4.3-.1.6-.2,1-.2s.8,0,1.2.3c.3.2.6.5.8.8.2.4.3.8.3,1.3v3.5h-.9v-3.5c0-.6-.1-1-.4-1.3-.3-.3-.7-.4-1.2-.4s-1,.2-1.4.5-.5.9-.5,1.6v2.9h-.9Z"/>
      </g>
    </g>
  </g>
</svg>
